<?xml version="1.0" encoding="UTF-8" standalone="no"?>
<!DOCTYPE svg PUBLIC "-//W3C//DTD SVG 1.1//EN"
 "http://www.w3.org/Graphics/SVG/1.1/DTD/svg11.dtd">
<!-- Generated by graphviz version 12.1.2 (20240928.0832)
 -->
<!-- Title: finance.expenses Pages: 1 -->
<svg width="378pt" height="818pt"
 viewBox="0.00 0.00 378.36 817.60" xmlns="http://www.w3.org/2000/svg" xmlns:xlink="http://www.w3.org/1999/xlink">
<g id="graph0" class="graph" transform="scale(1 1) rotate(0) translate(4 813.6)">
<title>finance.expenses</title>
<polygon fill="white" stroke="none" points="-4,4 -4,-813.6 374.36,-813.6 374.36,4 -4,4"/>
<!-- finance.expenses -->
<g id="node1" class="node">
<title>finance.expenses</title>
<polygon fill="#efefef" stroke="none" points="46.2,-727.8 46.2,-763.4 311.79,-763.4 311.79,-727.8 46.2,-727.8"/>
<polygon fill="none" stroke="black" points="46.2,-727.8 46.2,-763.4 311.79,-763.4 311.79,-727.8 46.2,-727.8"/>
<text text-anchor="start" x="53.2" y="-741.2" font-family="Arial Bold" font-size="18.00">finance.expenses</text>
<text text-anchor="start" x="175.64" y="-741.2" font-family="Arial" font-size="14.00">    </text>
<text text-anchor="start" x="206.76" y="-741.2" font-family="Arial" font-size="14.00" fill="#666666">[BASIC TABLE]</text>
<polygon fill="none" stroke="black" points="46.2,-697 46.2,-727.8 311.79,-727.8 311.79,-697 46.2,-697"/>
<text text-anchor="start" x="53.2" y="-709.2" font-family="Arial" font-size="14.00">id </text>
<text text-anchor="start" x="67.99" y="-709.2" font-family="Arial" font-size="14.00" fill="#666666">[int]</text>
<polygon fill="none" stroke="black" points="46.2,-666.2 46.2,-697 311.79,-697 311.79,-666.2 46.2,-666.2"/>
<text text-anchor="start" x="53.2" y="-678.4" font-family="Arial" font-size="14.00">user_id </text>
<text text-anchor="start" x="103.01" y="-678.4" font-family="Arial" font-size="14.00" fill="#666666">[int]</text>
<polygon fill="none" stroke="black" points="46.2,-635.4 46.2,-666.2 311.79,-666.2 311.79,-635.4 46.2,-635.4"/>
<text text-anchor="start" x="53.2" y="-647.6" font-family="Arial" font-size="14.00">category </text>
<text text-anchor="start" x="110.79" y="-647.6" font-family="Arial" font-size="14.00" fill="#666666">[varchar(255)]</text>
<polygon fill="none" stroke="black" points="46.2,-604.6 46.2,-635.4 311.79,-635.4 311.79,-604.6 46.2,-604.6"/>
<text text-anchor="start" x="53.2" y="-616.8" font-family="Arial" font-size="14.00">payment_method </text>
<text text-anchor="start" x="165.27" y="-616.8" font-family="Arial" font-size="14.00" fill="#666666">[varchar(255)]</text>
<polygon fill="none" stroke="black" points="46.2,-573.8 46.2,-604.6 311.79,-604.6 311.79,-573.8 46.2,-573.8"/>
<text text-anchor="start" x="53.2" y="-586" font-family="Arial" font-size="14.00">amount </text>
<text text-anchor="start" x="103.79" y="-586" font-family="Arial" font-size="14.00" fill="#666666">[decimal]</text>
<polygon fill="none" stroke="black" points="46.2,-543 46.2,-573.8 311.79,-573.8 311.79,-543 46.2,-543"/>
<text text-anchor="start" x="53.2" y="-555.2" font-family="Arial" font-size="14.00">currency_code </text>
<text text-anchor="start" x="148.92" y="-555.2" font-family="Arial" font-size="14.00" fill="#666666">[varchar(10)]</text>
<polygon fill="none" stroke="black" points="46.2,-512.2 46.2,-543 311.79,-543 311.79,-512.2 46.2,-512.2"/>
<text text-anchor="start" x="53.2" y="-524.4" font-family="Arial" font-size="14.00">description </text>
<text text-anchor="start" x="124.79" y="-524.4" font-family="Arial" font-size="14.00" fill="#666666">[varchar(255)]</text>
<polygon fill="none" stroke="black" points="46.2,-481.4 46.2,-512.2 311.79,-512.2 311.79,-481.4 46.2,-481.4"/>
<text text-anchor="start" x="53.2" y="-493.6" font-family="Arial" font-size="14.00">expense_date </text>
<text text-anchor="start" x="145.05" y="-493.6" font-family="Arial" font-size="14.00" fill="#666666">[datetime]</text>
<polygon fill="none" stroke="black" points="46.2,-450.6 46.2,-481.4 311.79,-481.4 311.79,-450.6 46.2,-450.6"/>
<text text-anchor="start" x="53.2" y="-462.8" font-family="Arial" font-size="14.00">created_at </text>
<text text-anchor="start" x="123.25" y="-462.8" font-family="Arial" font-size="14.00" fill="#666666">[datetime]</text>
<polygon fill="none" stroke="black" points="46.2,-419.8 46.2,-450.6 311.79,-450.6 311.79,-419.8 46.2,-419.8"/>
<text text-anchor="start" x="53.2" y="-432" font-family="Arial" font-size="14.00">status </text>
<text text-anchor="start" x="94.44" y="-432" font-family="Arial" font-size="14.00" fill="#666666">[tinyint]</text>
<polygon fill="none" stroke="black" stroke-width="3" points="44.7,-418.3 44.7,-764.9 313.29,-764.9 313.29,-418.3 44.7,-418.3"/>
</g>
<!-- users -->
<g id="node2" class="node">
<title>users</title>
<polygon fill="#efefef" stroke="none" points="83.28,-258.8 83.28,-294.4 274.71,-294.4 274.71,-258.8 83.28,-258.8"/>
<polygon fill="none" stroke="black" points="83.28,-258.8 83.28,-294.4 274.71,-294.4 274.71,-258.8 83.28,-258.8"/>
<text text-anchor="start" x="95.92" y="-272.2" font-family="Arial Bold" font-size="18.00">users</text>
<text text-anchor="start" x="132.92" y="-272.2" font-family="Arial" font-size="14.00">    </text>
<text text-anchor="start" x="164.03" y="-272.2" font-family="Arial" font-size="14.00" fill="#666666">[BASIC TABLE]</text>
<polygon fill="none" stroke="black" points="83.28,-228 83.28,-258.8 274.71,-258.8 274.71,-228 83.28,-228"/>
<text text-anchor="start" x="90.28" y="-240.2" font-family="Arial" font-size="14.00">id </text>
<text text-anchor="start" x="105.07" y="-240.2" font-family="Arial" font-size="14.00" fill="#666666">[int]</text>
<polygon fill="none" stroke="black" points="83.28,-197.2 83.28,-228 274.71,-228 274.71,-197.2 83.28,-197.2"/>
<text text-anchor="start" x="90.28" y="-209.4" font-family="Arial" font-size="14.00">username </text>
<text text-anchor="start" x="156.42" y="-209.4" font-family="Arial" font-size="14.00" fill="#666666">[varchar(100)]</text>
<polygon fill="none" stroke="black" points="83.28,-166.4 83.28,-197.2 274.71,-197.2 274.71,-166.4 83.28,-166.4"/>
<text text-anchor="start" x="90.28" y="-178.6" font-family="Arial" font-size="14.00">phone_number </text>
<text text-anchor="start" x="188.35" y="-178.6" font-family="Arial" font-size="14.00" fill="#666666">[varchar(15)]</text>
<polygon fill="none" stroke="black" points="83.28,-135.6 83.28,-166.4 274.71,-166.4 274.71,-135.6 83.28,-135.6"/>
<text text-anchor="start" x="90.28" y="-147.8" font-family="Arial" font-size="14.00">email </text>
<text text-anchor="start" x="127.62" y="-147.8" font-family="Arial" font-size="14.00" fill="#666666">[varchar(100)]</text>
<polygon fill="none" stroke="black" points="83.28,-104.8 83.28,-135.6 274.71,-135.6 274.71,-104.8 83.28,-104.8"/>
<text text-anchor="start" x="90.28" y="-117" font-family="Arial" font-size="14.00">password </text>
<text text-anchor="start" x="154.09" y="-117" font-family="Arial" font-size="14.00" fill="#666666">[nvarchar(1024)]</text>
<polygon fill="none" stroke="black" points="83.28,-74 83.28,-104.8 274.71,-104.8 274.71,-74 83.28,-74"/>
<text text-anchor="start" x="90.28" y="-86.2" font-family="Arial" font-size="14.00">created_at </text>
<text text-anchor="start" x="160.33" y="-86.2" font-family="Arial" font-size="14.00" fill="#666666">[datetime]</text>
<polygon fill="none" stroke="black" points="83.28,-43.2 83.28,-74 274.71,-74 274.71,-43.2 83.28,-43.2"/>
<text text-anchor="start" x="90.28" y="-55.4" font-family="Arial" font-size="14.00">status </text>
<text text-anchor="start" x="131.52" y="-55.4" font-family="Arial" font-size="14.00" fill="#666666">[tinyint]</text>
</g>
<!-- finance.expenses&#45;&gt;users -->
<g id="edge1" class="edge">
<title>finance.expenses:user_id&#45;&gt;users:id</title>
<path fill="none" stroke="black" d="M322.86,-679.93C407.76,-650.51 369.91,-243.4 275.71,-243.4"/>
<polygon fill="black" stroke="black" points="322.99,-679.9 312.38,-677.11 317.72,-680.78 313.45,-681.49 313.45,-681.49 313.45,-681.49 317.72,-680.78 313.86,-685.98 322.99,-679.9"/>
</g>
</g>
</svg>
