<?xml version="1.0" encoding="UTF-8" standalone="no"?>
<!DOCTYPE svg PUBLIC "-//W3C//DTD SVG 1.1//EN"
 "http://www.w3.org/Graphics/SVG/1.1/DTD/svg11.dtd">
<!-- Generated by graphviz version 12.1.2 (20240928.0832)
 -->
<!-- Title: users Pages: 1 -->
<svg width="2114pt" height="1002pt"
 viewBox="0.00 0.00 2113.53 1002.40" xmlns="http://www.w3.org/2000/svg" xmlns:xlink="http://www.w3.org/1999/xlink">
<g id="graph0" class="graph" transform="scale(1 1) rotate(0) translate(4 998.4)">
<title>users</title>
<polygon fill="white" stroke="none" points="-4,4 -4,-998.4 2109.53,-998.4 2109.53,4 -4,4"/>
<!-- users -->
<g id="node1" class="node">
<title>users</title>
<polygon fill="#efefef" stroke="none" points="922.8,-261.8 922.8,-297.4 1114.24,-297.4 1114.24,-261.8 922.8,-261.8"/>
<polygon fill="none" stroke="black" points="922.8,-261.8 922.8,-297.4 1114.24,-297.4 1114.24,-261.8 922.8,-261.8"/>
<text text-anchor="start" x="935.45" y="-275.2" font-family="Arial Bold" font-size="18.00">users</text>
<text text-anchor="start" x="972.44" y="-275.2" font-family="Arial" font-size="14.00">    </text>
<text text-anchor="start" x="1003.56" y="-275.2" font-family="Arial" font-size="14.00" fill="#666666">[BASIC TABLE]</text>
<polygon fill="none" stroke="black" points="922.8,-231 922.8,-261.8 1114.24,-261.8 1114.24,-231 922.8,-231"/>
<text text-anchor="start" x="929.8" y="-243.2" font-family="Arial" font-size="14.00">id </text>
<text text-anchor="start" x="944.59" y="-243.2" font-family="Arial" font-size="14.00" fill="#666666">[int]</text>
<polygon fill="none" stroke="black" points="922.8,-200.2 922.8,-231 1114.24,-231 1114.24,-200.2 922.8,-200.2"/>
<text text-anchor="start" x="929.8" y="-212.4" font-family="Arial" font-size="14.00">username </text>
<text text-anchor="start" x="995.95" y="-212.4" font-family="Arial" font-size="14.00" fill="#666666">[varchar(100)]</text>
<polygon fill="none" stroke="black" points="922.8,-169.4 922.8,-200.2 1114.24,-200.2 1114.24,-169.4 922.8,-169.4"/>
<text text-anchor="start" x="929.8" y="-181.6" font-family="Arial" font-size="14.00">phone_number </text>
<text text-anchor="start" x="1027.88" y="-181.6" font-family="Arial" font-size="14.00" fill="#666666">[varchar(15)]</text>
<polygon fill="none" stroke="black" points="922.8,-138.6 922.8,-169.4 1114.24,-169.4 1114.24,-138.6 922.8,-138.6"/>
<text text-anchor="start" x="929.8" y="-150.8" font-family="Arial" font-size="14.00">email </text>
<text text-anchor="start" x="967.15" y="-150.8" font-family="Arial" font-size="14.00" fill="#666666">[varchar(100)]</text>
<polygon fill="none" stroke="black" points="922.8,-107.8 922.8,-138.6 1114.24,-138.6 1114.24,-107.8 922.8,-107.8"/>
<text text-anchor="start" x="929.8" y="-120" font-family="Arial" font-size="14.00">password </text>
<text text-anchor="start" x="993.61" y="-120" font-family="Arial" font-size="14.00" fill="#666666">[nvarchar(1024)]</text>
<polygon fill="none" stroke="black" points="922.8,-77 922.8,-107.8 1114.24,-107.8 1114.24,-77 922.8,-77"/>
<text text-anchor="start" x="929.8" y="-89.2" font-family="Arial" font-size="14.00">created_at </text>
<text text-anchor="start" x="999.85" y="-89.2" font-family="Arial" font-size="14.00" fill="#666666">[datetime]</text>
<polygon fill="none" stroke="black" points="922.8,-46.2 922.8,-77 1114.24,-77 1114.24,-46.2 922.8,-46.2"/>
<text text-anchor="start" x="929.8" y="-58.4" font-family="Arial" font-size="14.00">status </text>
<text text-anchor="start" x="971.04" y="-58.4" font-family="Arial" font-size="14.00" fill="#666666">[tinyint]</text>
<polygon fill="none" stroke="black" stroke-width="3" points="921.3,-44.7 921.3,-298.9 1115.74,-298.9 1115.74,-44.7 921.3,-44.7"/>
</g>
<!-- plan.budgets -->
<g id="node2" class="node">
<title>plan.budgets</title>
<polygon fill="#efefef" stroke="none" points="43.2,-823.2 43.2,-858.8 277.84,-858.8 277.84,-823.2 43.2,-823.2"/>
<polygon fill="none" stroke="black" points="43.2,-823.2 43.2,-858.8 277.84,-858.8 277.84,-823.2 43.2,-823.2"/>
<text text-anchor="start" x="50.2" y="-836.6" font-family="Arial Bold" font-size="18.00">plan.budgets</text>
<text text-anchor="start" x="141.69" y="-836.6" font-family="Arial" font-size="14.00">    </text>
<text text-anchor="start" x="172.8" y="-836.6" font-family="Arial" font-size="14.00" fill="#666666">[BASIC TABLE]</text>
<polygon fill="none" stroke="black" points="43.2,-792.4 43.2,-823.2 277.84,-823.2 277.84,-792.4 43.2,-792.4"/>
<text text-anchor="start" x="50.2" y="-804.6" font-family="Arial" font-size="14.00">id </text>
<text text-anchor="start" x="64.99" y="-804.6" font-family="Arial" font-size="14.00" fill="#666666">[int]</text>
<polygon fill="none" stroke="black" points="43.2,-761.6 43.2,-792.4 277.84,-792.4 277.84,-761.6 43.2,-761.6"/>
<text text-anchor="start" x="50.2" y="-773.8" font-family="Arial" font-size="14.00">user_id </text>
<text text-anchor="start" x="100.01" y="-773.8" font-family="Arial" font-size="14.00" fill="#666666">[int]</text>
<polygon fill="none" stroke="black" points="43.2,-730.8 43.2,-761.6 277.84,-761.6 277.84,-730.8 43.2,-730.8"/>
<text text-anchor="start" x="50.2" y="-743" font-family="Arial" font-size="14.00">name </text>
<text text-anchor="start" x="89.11" y="-743" font-family="Arial" font-size="14.00" fill="#666666">[varchar(100)]</text>
<polygon fill="none" stroke="black" points="43.2,-700 43.2,-730.8 277.84,-730.8 277.84,-700 43.2,-700"/>
<text text-anchor="start" x="50.2" y="-712.2" font-family="Arial" font-size="14.00">description </text>
<text text-anchor="start" x="121.79" y="-712.2" font-family="Arial" font-size="14.00" fill="#666666">[varchar(255)]</text>
<polygon fill="none" stroke="black" points="43.2,-669.2 43.2,-700 277.84,-700 277.84,-669.2 43.2,-669.2"/>
<text text-anchor="start" x="50.2" y="-681.4" font-family="Arial" font-size="14.00">amount_limit </text>
<text text-anchor="start" x="133.45" y="-681.4" font-family="Arial" font-size="14.00" fill="#666666">[decimal]</text>
<polygon fill="none" stroke="black" points="43.2,-638.4 43.2,-669.2 277.84,-669.2 277.84,-638.4 43.2,-638.4"/>
<text text-anchor="start" x="50.2" y="-650.6" font-family="Arial" font-size="14.00">currency_code </text>
<text text-anchor="start" x="145.92" y="-650.6" font-family="Arial" font-size="14.00" fill="#666666">[varchar(10)]</text>
<polygon fill="none" stroke="black" points="43.2,-607.6 43.2,-638.4 277.84,-638.4 277.84,-607.6 43.2,-607.6"/>
<text text-anchor="start" x="50.2" y="-619.8" font-family="Arial" font-size="14.00">start_date </text>
<text text-anchor="start" x="116.35" y="-619.8" font-family="Arial" font-size="14.00" fill="#666666">[datetime]</text>
<polygon fill="none" stroke="black" points="43.2,-576.8 43.2,-607.6 277.84,-607.6 277.84,-576.8 43.2,-576.8"/>
<text text-anchor="start" x="50.2" y="-589" font-family="Arial" font-size="14.00">end_date </text>
<text text-anchor="start" x="112.48" y="-589" font-family="Arial" font-size="14.00" fill="#666666">[datetime]</text>
<polygon fill="none" stroke="black" points="43.2,-546 43.2,-576.8 277.84,-576.8 277.84,-546 43.2,-546"/>
<text text-anchor="start" x="50.2" y="-558.2" font-family="Arial" font-size="14.00">created_at </text>
<text text-anchor="start" x="120.25" y="-558.2" font-family="Arial" font-size="14.00" fill="#666666">[datetime]</text>
<polygon fill="none" stroke="black" points="43.2,-515.2 43.2,-546 277.84,-546 277.84,-515.2 43.2,-515.2"/>
<text text-anchor="start" x="50.2" y="-527.4" font-family="Arial" font-size="14.00">status </text>
<text text-anchor="start" x="91.44" y="-527.4" font-family="Arial" font-size="14.00" fill="#666666">[tinyint]</text>
</g>
<!-- plan.budgets&#45;&gt;users -->
<g id="edge1" class="edge">
<title>plan.budgets:user_id&#45;&gt;users:id</title>
<path fill="none" stroke="black" d="M288.87,-775.37C360.07,-750.25 272.06,-442.75 329.52,-379.6 420.31,-279.81 786.9,-246.4 921.8,-246.4"/>
<polygon fill="black" stroke="black" points="289.04,-775.34 278.44,-772.5 283.77,-776.2 279.5,-776.89 279.5,-776.89 279.5,-776.89 283.77,-776.2 279.89,-781.39 289.04,-775.34"/>
</g>
<!-- plan.goals -->
<g id="node3" class="node">
<title>plan.goals</title>
<polygon fill="#efefef" stroke="none" points="382.2,-823.2 382.2,-858.8 598.84,-858.8 598.84,-823.2 382.2,-823.2"/>
<polygon fill="none" stroke="black" points="382.2,-823.2 382.2,-858.8 598.84,-858.8 598.84,-823.2 382.2,-823.2"/>
<text text-anchor="start" x="389.2" y="-836.6" font-family="Arial Bold" font-size="18.00">plan.goals</text>
<text text-anchor="start" x="462.69" y="-836.6" font-family="Arial" font-size="14.00">    </text>
<text text-anchor="start" x="493.8" y="-836.6" font-family="Arial" font-size="14.00" fill="#666666">[BASIC TABLE]</text>
<polygon fill="none" stroke="black" points="382.2,-792.4 382.2,-823.2 598.84,-823.2 598.84,-792.4 382.2,-792.4"/>
<text text-anchor="start" x="389.2" y="-804.6" font-family="Arial" font-size="14.00">id </text>
<text text-anchor="start" x="403.99" y="-804.6" font-family="Arial" font-size="14.00" fill="#666666">[int]</text>
<polygon fill="none" stroke="black" points="382.2,-761.6 382.2,-792.4 598.84,-792.4 598.84,-761.6 382.2,-761.6"/>
<text text-anchor="start" x="389.2" y="-773.8" font-family="Arial" font-size="14.00">user_id </text>
<text text-anchor="start" x="439.01" y="-773.8" font-family="Arial" font-size="14.00" fill="#666666">[int]</text>
<polygon fill="none" stroke="black" points="382.2,-730.8 382.2,-761.6 598.84,-761.6 598.84,-730.8 382.2,-730.8"/>
<text text-anchor="start" x="389.2" y="-743" font-family="Arial" font-size="14.00">name </text>
<text text-anchor="start" x="428.11" y="-743" font-family="Arial" font-size="14.00" fill="#666666">[varchar(100)]</text>
<polygon fill="none" stroke="black" points="382.2,-700 382.2,-730.8 598.84,-730.8 598.84,-700 382.2,-700"/>
<text text-anchor="start" x="389.2" y="-712.2" font-family="Arial" font-size="14.00">description </text>
<text text-anchor="start" x="460.79" y="-712.2" font-family="Arial" font-size="14.00" fill="#666666">[varchar(255)]</text>
<polygon fill="none" stroke="black" points="382.2,-669.2 382.2,-700 598.84,-700 598.84,-669.2 382.2,-669.2"/>
<text text-anchor="start" x="389.2" y="-681.4" font-family="Arial" font-size="14.00">target_amount </text>
<text text-anchor="start" x="483.37" y="-681.4" font-family="Arial" font-size="14.00" fill="#666666">[decimal]</text>
<polygon fill="none" stroke="black" points="382.2,-638.4 382.2,-669.2 598.84,-669.2 598.84,-638.4 382.2,-638.4"/>
<text text-anchor="start" x="389.2" y="-650.6" font-family="Arial" font-size="14.00">current_amount </text>
<text text-anchor="start" x="491.14" y="-650.6" font-family="Arial" font-size="14.00" fill="#666666">[decimal]</text>
<polygon fill="none" stroke="black" points="382.2,-607.6 382.2,-638.4 598.84,-638.4 598.84,-607.6 382.2,-607.6"/>
<text text-anchor="start" x="389.2" y="-619.8" font-family="Arial" font-size="14.00">currency_code </text>
<text text-anchor="start" x="484.92" y="-619.8" font-family="Arial" font-size="14.00" fill="#666666">[varchar(10)]</text>
<polygon fill="none" stroke="black" points="382.2,-576.8 382.2,-607.6 598.84,-607.6 598.84,-576.8 382.2,-576.8"/>
<text text-anchor="start" x="389.2" y="-589" font-family="Arial" font-size="14.00">due_date </text>
<text text-anchor="start" x="451.48" y="-589" font-family="Arial" font-size="14.00" fill="#666666">[datetime]</text>
<polygon fill="none" stroke="black" points="382.2,-546 382.2,-576.8 598.84,-576.8 598.84,-546 382.2,-546"/>
<text text-anchor="start" x="389.2" y="-558.2" font-family="Arial" font-size="14.00">created_at </text>
<text text-anchor="start" x="459.25" y="-558.2" font-family="Arial" font-size="14.00" fill="#666666">[datetime]</text>
<polygon fill="none" stroke="black" points="382.2,-515.2 382.2,-546 598.84,-546 598.84,-515.2 382.2,-515.2"/>
<text text-anchor="start" x="389.2" y="-527.4" font-family="Arial" font-size="14.00">status </text>
<text text-anchor="start" x="430.44" y="-527.4" font-family="Arial" font-size="14.00" fill="#666666">[tinyint]</text>
</g>
<!-- plan.goals&#45;&gt;users -->
<g id="edge2" class="edge">
<title>plan.goals:user_id&#45;&gt;users:id</title>
<path fill="none" stroke="black" d="M609.92,-775.4C681.81,-750.77 601.82,-449.05 651.52,-379.6 729.45,-270.69 787.88,-246.4 921.8,-246.4"/>
<polygon fill="black" stroke="black" points="610.04,-775.38 599.46,-772.5 604.77,-776.22 600.5,-776.9 600.5,-776.9 600.5,-776.9 604.77,-776.22 600.87,-781.39 610.04,-775.38"/>
</g>
<!-- finance.earnings -->
<g id="node4" class="node">
<title>finance.earnings</title>
<polygon fill="#efefef" stroke="none" points="703.72,-823.2 703.72,-858.8 965.31,-858.8 965.31,-823.2 703.72,-823.2"/>
<polygon fill="none" stroke="black" points="703.72,-823.2 703.72,-858.8 965.31,-858.8 965.31,-823.2 703.72,-823.2"/>
<text text-anchor="start" x="710.72" y="-836.6" font-family="Arial Bold" font-size="18.00">finance.earnings</text>
<text text-anchor="start" x="829.16" y="-836.6" font-family="Arial" font-size="14.00">    </text>
<text text-anchor="start" x="860.28" y="-836.6" font-family="Arial" font-size="14.00" fill="#666666">[BASIC TABLE]</text>
<polygon fill="none" stroke="black" points="703.72,-792.4 703.72,-823.2 965.31,-823.2 965.31,-792.4 703.72,-792.4"/>
<text text-anchor="start" x="710.72" y="-804.6" font-family="Arial" font-size="14.00">id </text>
<text text-anchor="start" x="725.51" y="-804.6" font-family="Arial" font-size="14.00" fill="#666666">[int]</text>
<polygon fill="none" stroke="black" points="703.72,-761.6 703.72,-792.4 965.31,-792.4 965.31,-761.6 703.72,-761.6"/>
<text text-anchor="start" x="710.72" y="-773.8" font-family="Arial" font-size="14.00">user_id </text>
<text text-anchor="start" x="760.53" y="-773.8" font-family="Arial" font-size="14.00" fill="#666666">[int]</text>
<polygon fill="none" stroke="black" points="703.72,-730.8 703.72,-761.6 965.31,-761.6 965.31,-730.8 703.72,-730.8"/>
<text text-anchor="start" x="710.72" y="-743" font-family="Arial" font-size="14.00">category </text>
<text text-anchor="start" x="768.31" y="-743" font-family="Arial" font-size="14.00" fill="#666666">[varchar(255)]</text>
<polygon fill="none" stroke="black" points="703.72,-700 703.72,-730.8 965.31,-730.8 965.31,-700 703.72,-700"/>
<text text-anchor="start" x="710.72" y="-712.2" font-family="Arial" font-size="14.00">payment_method </text>
<text text-anchor="start" x="822.79" y="-712.2" font-family="Arial" font-size="14.00" fill="#666666">[varchar(255)]</text>
<polygon fill="none" stroke="black" points="703.72,-669.2 703.72,-700 965.31,-700 965.31,-669.2 703.72,-669.2"/>
<text text-anchor="start" x="710.72" y="-681.4" font-family="Arial" font-size="14.00">amount </text>
<text text-anchor="start" x="761.31" y="-681.4" font-family="Arial" font-size="14.00" fill="#666666">[decimal]</text>
<polygon fill="none" stroke="black" points="703.72,-638.4 703.72,-669.2 965.31,-669.2 965.31,-638.4 703.72,-638.4"/>
<text text-anchor="start" x="710.72" y="-650.6" font-family="Arial" font-size="14.00">currency_code </text>
<text text-anchor="start" x="806.44" y="-650.6" font-family="Arial" font-size="14.00" fill="#666666">[varchar(10)]</text>
<polygon fill="none" stroke="black" points="703.72,-607.6 703.72,-638.4 965.31,-638.4 965.31,-607.6 703.72,-607.6"/>
<text text-anchor="start" x="710.72" y="-619.8" font-family="Arial" font-size="14.00">description </text>
<text text-anchor="start" x="782.31" y="-619.8" font-family="Arial" font-size="14.00" fill="#666666">[varchar(255)]</text>
<polygon fill="none" stroke="black" points="703.72,-576.8 703.72,-607.6 965.31,-607.6 965.31,-576.8 703.72,-576.8"/>
<text text-anchor="start" x="710.72" y="-589" font-family="Arial" font-size="14.00">earning_date </text>
<text text-anchor="start" x="796.35" y="-589" font-family="Arial" font-size="14.00" fill="#666666">[datetime]</text>
<polygon fill="none" stroke="black" points="703.72,-546 703.72,-576.8 965.31,-576.8 965.31,-546 703.72,-546"/>
<text text-anchor="start" x="710.72" y="-558.2" font-family="Arial" font-size="14.00">created_at </text>
<text text-anchor="start" x="780.77" y="-558.2" font-family="Arial" font-size="14.00" fill="#666666">[datetime]</text>
<polygon fill="none" stroke="black" points="703.72,-515.2 703.72,-546 965.31,-546 965.31,-515.2 703.72,-515.2"/>
<text text-anchor="start" x="710.72" y="-527.4" font-family="Arial" font-size="14.00">status </text>
<text text-anchor="start" x="751.96" y="-527.4" font-family="Arial" font-size="14.00" fill="#666666">[tinyint]</text>
</g>
<!-- finance.earnings&#45;&gt;users -->
<g id="edge3" class="edge">
<title>finance.earnings:user_id&#45;&gt;users:id</title>
<path fill="none" stroke="black" d="M976.34,-774.93C1027.9,-751.47 975.62,-535.24 965.31,-472 955.65,-412.67 932.68,-402.9 922.8,-343.6 915.7,-300.98 878.6,-246.4 921.8,-246.4"/>
<polygon fill="black" stroke="black" points="976.44,-774.91 965.73,-772.53 971.21,-775.99 966.97,-776.86 966.97,-776.86 966.97,-776.86 971.21,-775.99 967.55,-781.34 976.44,-774.91"/>
</g>
<!-- finance.expenses -->
<g id="node5" class="node">
<title>finance.expenses</title>
<polygon fill="#efefef" stroke="none" points="1069.72,-823.2 1069.72,-858.8 1335.31,-858.8 1335.31,-823.2 1069.72,-823.2"/>
<polygon fill="none" stroke="black" points="1069.72,-823.2 1069.72,-858.8 1335.31,-858.8 1335.31,-823.2 1069.72,-823.2"/>
<text text-anchor="start" x="1076.72" y="-836.6" font-family="Arial Bold" font-size="18.00">finance.expenses</text>
<text text-anchor="start" x="1199.16" y="-836.6" font-family="Arial" font-size="14.00">    </text>
<text text-anchor="start" x="1230.28" y="-836.6" font-family="Arial" font-size="14.00" fill="#666666">[BASIC TABLE]</text>
<polygon fill="none" stroke="black" points="1069.72,-792.4 1069.72,-823.2 1335.31,-823.2 1335.31,-792.4 1069.72,-792.4"/>
<text text-anchor="start" x="1076.72" y="-804.6" font-family="Arial" font-size="14.00">id </text>
<text text-anchor="start" x="1091.51" y="-804.6" font-family="Arial" font-size="14.00" fill="#666666">[int]</text>
<polygon fill="none" stroke="black" points="1069.72,-761.6 1069.72,-792.4 1335.31,-792.4 1335.31,-761.6 1069.72,-761.6"/>
<text text-anchor="start" x="1076.72" y="-773.8" font-family="Arial" font-size="14.00">user_id </text>
<text text-anchor="start" x="1126.53" y="-773.8" font-family="Arial" font-size="14.00" fill="#666666">[int]</text>
<polygon fill="none" stroke="black" points="1069.72,-730.8 1069.72,-761.6 1335.31,-761.6 1335.31,-730.8 1069.72,-730.8"/>
<text text-anchor="start" x="1076.72" y="-743" font-family="Arial" font-size="14.00">category </text>
<text text-anchor="start" x="1134.31" y="-743" font-family="Arial" font-size="14.00" fill="#666666">[varchar(255)]</text>
<polygon fill="none" stroke="black" points="1069.72,-700 1069.72,-730.8 1335.31,-730.8 1335.31,-700 1069.72,-700"/>
<text text-anchor="start" x="1076.72" y="-712.2" font-family="Arial" font-size="14.00">payment_method </text>
<text text-anchor="start" x="1188.79" y="-712.2" font-family="Arial" font-size="14.00" fill="#666666">[varchar(255)]</text>
<polygon fill="none" stroke="black" points="1069.72,-669.2 1069.72,-700 1335.31,-700 1335.31,-669.2 1069.72,-669.2"/>
<text text-anchor="start" x="1076.72" y="-681.4" font-family="Arial" font-size="14.00">amount </text>
<text text-anchor="start" x="1127.31" y="-681.4" font-family="Arial" font-size="14.00" fill="#666666">[decimal]</text>
<polygon fill="none" stroke="black" points="1069.72,-638.4 1069.72,-669.2 1335.31,-669.2 1335.31,-638.4 1069.72,-638.4"/>
<text text-anchor="start" x="1076.72" y="-650.6" font-family="Arial" font-size="14.00">currency_code </text>
<text text-anchor="start" x="1172.44" y="-650.6" font-family="Arial" font-size="14.00" fill="#666666">[varchar(10)]</text>
<polygon fill="none" stroke="black" points="1069.72,-607.6 1069.72,-638.4 1335.31,-638.4 1335.31,-607.6 1069.72,-607.6"/>
<text text-anchor="start" x="1076.72" y="-619.8" font-family="Arial" font-size="14.00">description </text>
<text text-anchor="start" x="1148.32" y="-619.8" font-family="Arial" font-size="14.00" fill="#666666">[varchar(255)]</text>
<polygon fill="none" stroke="black" points="1069.72,-576.8 1069.72,-607.6 1335.31,-607.6 1335.31,-576.8 1069.72,-576.8"/>
<text text-anchor="start" x="1076.72" y="-589" font-family="Arial" font-size="14.00">expense_date </text>
<text text-anchor="start" x="1168.58" y="-589" font-family="Arial" font-size="14.00" fill="#666666">[datetime]</text>
<polygon fill="none" stroke="black" points="1069.72,-546 1069.72,-576.8 1335.31,-576.8 1335.31,-546 1069.72,-546"/>
<text text-anchor="start" x="1076.72" y="-558.2" font-family="Arial" font-size="14.00">created_at </text>
<text text-anchor="start" x="1146.77" y="-558.2" font-family="Arial" font-size="14.00" fill="#666666">[datetime]</text>
<polygon fill="none" stroke="black" points="1069.72,-515.2 1069.72,-546 1335.31,-546 1335.31,-515.2 1069.72,-515.2"/>
<text text-anchor="start" x="1076.72" y="-527.4" font-family="Arial" font-size="14.00">status </text>
<text text-anchor="start" x="1117.96" y="-527.4" font-family="Arial" font-size="14.00" fill="#666666">[tinyint]</text>
</g>
<!-- finance.expenses&#45;&gt;users -->
<g id="edge4" class="edge">
<title>finance.expenses:user_id&#45;&gt;users:id</title>
<path fill="none" stroke="black" d="M1058.7,-774.93C1007.09,-751.46 1058.98,-535.16 1069.72,-472 1079.85,-412.46 1103.9,-403.11 1114.24,-343.6 1121.63,-301.04 1158.44,-246.4 1115.24,-246.4"/>
<polygon fill="black" stroke="black" points="1058.6,-774.91 1067.48,-781.34 1063.83,-775.99 1068.07,-776.86 1068.07,-776.86 1068.07,-776.86 1063.83,-775.99 1069.3,-772.53 1058.6,-774.91"/>
</g>
<!-- finance.investments -->
<g id="node6" class="node">
<title>finance.investments</title>
<polygon fill="#efefef" stroke="none" points="1439.22,-900.2 1439.22,-935.8 1725.82,-935.8 1725.82,-900.2 1439.22,-900.2"/>
<polygon fill="none" stroke="black" points="1439.22,-900.2 1439.22,-935.8 1725.82,-935.8 1725.82,-900.2 1439.22,-900.2"/>
<text text-anchor="start" x="1446.22" y="-913.6" font-family="Arial Bold" font-size="18.00">finance.investments</text>
<text text-anchor="start" x="1589.67" y="-913.6" font-family="Arial" font-size="14.00">    </text>
<text text-anchor="start" x="1620.79" y="-913.6" font-family="Arial" font-size="14.00" fill="#666666">[BASIC TABLE]</text>
<polygon fill="none" stroke="black" points="1439.22,-869.4 1439.22,-900.2 1725.82,-900.2 1725.82,-869.4 1439.22,-869.4"/>
<text text-anchor="start" x="1446.22" y="-881.6" font-family="Arial" font-size="14.00">id </text>
<text text-anchor="start" x="1461" y="-881.6" font-family="Arial" font-size="14.00" fill="#666666">[int]</text>
<polygon fill="none" stroke="black" points="1439.22,-838.6 1439.22,-869.4 1725.82,-869.4 1725.82,-838.6 1439.22,-838.6"/>
<text text-anchor="start" x="1446.22" y="-850.8" font-family="Arial" font-size="14.00">user_id </text>
<text text-anchor="start" x="1496.02" y="-850.8" font-family="Arial" font-size="14.00" fill="#666666">[int]</text>
<polygon fill="none" stroke="black" points="1439.22,-807.8 1439.22,-838.6 1725.82,-838.6 1725.82,-807.8 1439.22,-807.8"/>
<text text-anchor="start" x="1446.22" y="-820" font-family="Arial" font-size="14.00">investment_type </text>
<text text-anchor="start" x="1552.05" y="-820" font-family="Arial" font-size="14.00" fill="#666666">[varchar(50)]</text>
<polygon fill="none" stroke="black" points="1439.22,-777 1439.22,-807.8 1725.82,-807.8 1725.82,-777 1439.22,-777"/>
<text text-anchor="start" x="1446.22" y="-789.2" font-family="Arial" font-size="14.00">category </text>
<text text-anchor="start" x="1503.8" y="-789.2" font-family="Arial" font-size="14.00" fill="#666666">[varchar(100)]</text>
<polygon fill="none" stroke="black" points="1439.22,-746.2 1439.22,-777 1725.82,-777 1725.82,-746.2 1439.22,-746.2"/>
<text text-anchor="start" x="1446.22" y="-758.4" font-family="Arial" font-size="14.00">asset_name </text>
<text text-anchor="start" x="1526.37" y="-758.4" font-family="Arial" font-size="14.00" fill="#666666">[varchar(100)]</text>
<polygon fill="none" stroke="black" points="1439.22,-715.4 1439.22,-746.2 1725.82,-746.2 1725.82,-715.4 1439.22,-715.4"/>
<text text-anchor="start" x="1446.22" y="-727.6" font-family="Arial" font-size="14.00">broker </text>
<text text-anchor="start" x="1489.79" y="-727.6" font-family="Arial" font-size="14.00" fill="#666666">[varchar(100)]</text>
<polygon fill="none" stroke="black" points="1439.22,-684.6 1439.22,-715.4 1725.82,-715.4 1725.82,-684.6 1439.22,-684.6"/>
<text text-anchor="start" x="1446.22" y="-696.8" font-family="Arial" font-size="14.00">currency_code </text>
<text text-anchor="start" x="1541.93" y="-696.8" font-family="Arial" font-size="14.00" fill="#666666">[varchar(10)]</text>
<polygon fill="none" stroke="black" points="1439.22,-653.8 1439.22,-684.6 1725.82,-684.6 1725.82,-653.8 1439.22,-653.8"/>
<text text-anchor="start" x="1446.22" y="-666" font-family="Arial" font-size="14.00">invested_amount </text>
<text text-anchor="start" x="1556.73" y="-666" font-family="Arial" font-size="14.00" fill="#666666">[decimal]</text>
<polygon fill="none" stroke="black" points="1439.22,-623 1439.22,-653.8 1725.82,-653.8 1725.82,-623 1439.22,-623"/>
<text text-anchor="start" x="1446.22" y="-635.2" font-family="Arial" font-size="14.00">current_value </text>
<text text-anchor="start" x="1534.93" y="-635.2" font-family="Arial" font-size="14.00" fill="#666666">[decimal]</text>
<polygon fill="none" stroke="black" points="1439.22,-592.2 1439.22,-623 1725.82,-623 1725.82,-592.2 1439.22,-592.2"/>
<text text-anchor="start" x="1446.22" y="-604.4" font-family="Arial" font-size="14.00">purchase_date </text>
<text text-anchor="start" x="1542.73" y="-604.4" font-family="Arial" font-size="14.00" fill="#666666">[datetime]</text>
<polygon fill="none" stroke="black" points="1439.22,-561.4 1439.22,-592.2 1725.82,-592.2 1725.82,-561.4 1439.22,-561.4"/>
<text text-anchor="start" x="1446.22" y="-573.6" font-family="Arial" font-size="14.00">maturity_date </text>
<text text-anchor="start" x="1534.93" y="-573.6" font-family="Arial" font-size="14.00" fill="#666666">[datetime]</text>
<polygon fill="none" stroke="black" points="1439.22,-530.6 1439.22,-561.4 1725.82,-561.4 1725.82,-530.6 1439.22,-530.6"/>
<text text-anchor="start" x="1446.22" y="-542.8" font-family="Arial" font-size="14.00">annual_yield_percent </text>
<text text-anchor="start" x="1583.21" y="-542.8" font-family="Arial" font-size="14.00" fill="#666666">[decimal]</text>
<polygon fill="none" stroke="black" points="1439.22,-499.8 1439.22,-530.6 1725.82,-530.6 1725.82,-499.8 1439.22,-499.8"/>
<text text-anchor="start" x="1446.22" y="-512" font-family="Arial" font-size="14.00">profit_loss </text>
<text text-anchor="start" x="1513.91" y="-512" font-family="Arial" font-size="14.00" fill="#666666">[decimal]</text>
<polygon fill="none" stroke="black" points="1439.22,-469 1439.22,-499.8 1725.82,-499.8 1725.82,-469 1439.22,-469"/>
<text text-anchor="start" x="1446.22" y="-481.2" font-family="Arial" font-size="14.00">created_at </text>
<text text-anchor="start" x="1516.26" y="-481.2" font-family="Arial" font-size="14.00" fill="#666666">[datetime]</text>
<polygon fill="none" stroke="black" points="1439.22,-438.2 1439.22,-469 1725.82,-469 1725.82,-438.2 1439.22,-438.2"/>
<text text-anchor="start" x="1446.22" y="-450.4" font-family="Arial" font-size="14.00">status </text>
<text text-anchor="start" x="1487.46" y="-450.4" font-family="Arial" font-size="14.00" fill="#666666">[tinyint]</text>
</g>
<!-- finance.investments&#45;&gt;users -->
<g id="edge5" class="edge">
<title>finance.investments:user_id&#45;&gt;users:id</title>
<path fill="none" stroke="black" d="M1428.11,-852.67C1339.93,-827.86 1446.28,-463.46 1387.52,-379.6 1310.22,-269.27 1249.95,-246.4 1115.24,-246.4"/>
<polygon fill="black" stroke="black" points="1427.97,-852.65 1437.3,-858.42 1433.26,-853.35 1437.55,-853.91 1437.55,-853.91 1437.55,-853.91 1433.26,-853.35 1438.47,-849.49 1427.97,-852.65"/>
</g>
<!-- finance.bills -->
<g id="node7" class="node">
<title>finance.bills</title>
<polygon fill="#efefef" stroke="none" points="1830.71,-915.6 1830.71,-951.2 2062.33,-951.2 2062.33,-915.6 1830.71,-915.6"/>
<polygon fill="none" stroke="black" points="1830.71,-915.6 1830.71,-951.2 2062.33,-951.2 2062.33,-915.6 1830.71,-915.6"/>
<text text-anchor="start" x="1837.71" y="-929" font-family="Arial Bold" font-size="18.00">finance.bills</text>
<text text-anchor="start" x="1926.18" y="-929" font-family="Arial" font-size="14.00">    </text>
<text text-anchor="start" x="1957.3" y="-929" font-family="Arial" font-size="14.00" fill="#666666">[BASIC TABLE]</text>
<polygon fill="none" stroke="black" points="1830.71,-884.8 1830.71,-915.6 2062.33,-915.6 2062.33,-884.8 1830.71,-884.8"/>
<text text-anchor="start" x="1837.71" y="-897" font-family="Arial" font-size="14.00">id </text>
<text text-anchor="start" x="1852.49" y="-897" font-family="Arial" font-size="14.00" fill="#666666">[int]</text>
<polygon fill="none" stroke="black" points="1830.71,-854 1830.71,-884.8 2062.33,-884.8 2062.33,-854 1830.71,-854"/>
<text text-anchor="start" x="1837.71" y="-866.2" font-family="Arial" font-size="14.00">user_id </text>
<text text-anchor="start" x="1887.51" y="-866.2" font-family="Arial" font-size="14.00" fill="#666666">[int]</text>
<polygon fill="none" stroke="black" points="1830.71,-823.2 1830.71,-854 2062.33,-854 2062.33,-823.2 1830.71,-823.2"/>
<text text-anchor="start" x="1837.71" y="-835.4" font-family="Arial" font-size="14.00">bill_name </text>
<text text-anchor="start" x="1901.52" y="-835.4" font-family="Arial" font-size="14.00" fill="#666666">[varchar(255)]</text>
<polygon fill="none" stroke="black" points="1830.71,-792.4 1830.71,-823.2 2062.33,-823.2 2062.33,-792.4 1830.71,-792.4"/>
<text text-anchor="start" x="1837.71" y="-804.6" font-family="Arial" font-size="14.00">category </text>
<text text-anchor="start" x="1895.29" y="-804.6" font-family="Arial" font-size="14.00" fill="#666666">[varchar(255)]</text>
<polygon fill="none" stroke="black" points="1830.71,-761.6 1830.71,-792.4 2062.33,-792.4 2062.33,-761.6 1830.71,-761.6"/>
<text text-anchor="start" x="1837.71" y="-773.8" font-family="Arial" font-size="14.00">payment_method </text>
<text text-anchor="start" x="1949.78" y="-773.8" font-family="Arial" font-size="14.00" fill="#666666">[varchar(255)]</text>
<polygon fill="none" stroke="black" points="1830.71,-730.8 1830.71,-761.6 2062.33,-761.6 2062.33,-730.8 1830.71,-730.8"/>
<text text-anchor="start" x="1837.71" y="-743" font-family="Arial" font-size="14.00">amount </text>
<text text-anchor="start" x="1888.29" y="-743" font-family="Arial" font-size="14.00" fill="#666666">[decimal]</text>
<polygon fill="none" stroke="black" points="1830.71,-700 1830.71,-730.8 2062.33,-730.8 2062.33,-700 1830.71,-700"/>
<text text-anchor="start" x="1837.71" y="-712.2" font-family="Arial" font-size="14.00">currency_code </text>
<text text-anchor="start" x="1933.42" y="-712.2" font-family="Arial" font-size="14.00" fill="#666666">[varchar(10)]</text>
<polygon fill="none" stroke="black" points="1830.71,-669.2 1830.71,-700 2062.33,-700 2062.33,-669.2 1830.71,-669.2"/>
<text text-anchor="start" x="1837.71" y="-681.4" font-family="Arial" font-size="14.00">due_date </text>
<text text-anchor="start" x="1899.99" y="-681.4" font-family="Arial" font-size="14.00" fill="#666666">[date]</text>
<polygon fill="none" stroke="black" points="1830.71,-638.4 1830.71,-669.2 2062.33,-669.2 2062.33,-638.4 1830.71,-638.4"/>
<text text-anchor="start" x="1837.71" y="-650.6" font-family="Arial" font-size="14.00">recurrence_type </text>
<text text-anchor="start" x="1942.76" y="-650.6" font-family="Arial" font-size="14.00" fill="#666666">[varchar(50)]</text>
<polygon fill="none" stroke="black" points="1830.71,-607.6 1830.71,-638.4 2062.33,-638.4 2062.33,-607.6 1830.71,-607.6"/>
<text text-anchor="start" x="1837.71" y="-619.8" font-family="Arial" font-size="14.00">recurrence_interval </text>
<text text-anchor="start" x="1961.43" y="-619.8" font-family="Arial" font-size="14.00" fill="#666666">[int]</text>
<polygon fill="none" stroke="black" points="1830.71,-576.8 1830.71,-607.6 2062.33,-607.6 2062.33,-576.8 1830.71,-576.8"/>
<text text-anchor="start" x="1837.71" y="-589" font-family="Arial" font-size="14.00">next_due_date </text>
<text text-anchor="start" x="1934.24" y="-589" font-family="Arial" font-size="14.00" fill="#666666">[date]</text>
<polygon fill="none" stroke="black" points="1830.71,-546 1830.71,-576.8 2062.33,-576.8 2062.33,-546 1830.71,-546"/>
<text text-anchor="start" x="1837.71" y="-558.2" font-family="Arial" font-size="14.00">paid_date </text>
<text text-anchor="start" x="1903.1" y="-558.2" font-family="Arial" font-size="14.00" fill="#666666">[date]</text>
<polygon fill="none" stroke="black" points="1830.71,-515.2 1830.71,-546 2062.33,-546 2062.33,-515.2 1830.71,-515.2"/>
<text text-anchor="start" x="1837.71" y="-527.4" font-family="Arial" font-size="14.00">description </text>
<text text-anchor="start" x="1909.3" y="-527.4" font-family="Arial" font-size="14.00" fill="#666666">[varchar(255)]</text>
<polygon fill="none" stroke="black" points="1830.71,-484.4 1830.71,-515.2 2062.33,-515.2 2062.33,-484.4 1830.71,-484.4"/>
<text text-anchor="start" x="1837.71" y="-496.6" font-family="Arial" font-size="14.00">created_at </text>
<text text-anchor="start" x="1907.76" y="-496.6" font-family="Arial" font-size="14.00" fill="#666666">[datetime]</text>
<polygon fill="none" stroke="black" points="1830.71,-453.6 1830.71,-484.4 2062.33,-484.4 2062.33,-453.6 1830.71,-453.6"/>
<text text-anchor="start" x="1837.71" y="-465.8" font-family="Arial" font-size="14.00">updated_at </text>
<text text-anchor="start" x="1911.67" y="-465.8" font-family="Arial" font-size="14.00" fill="#666666">[datetime]</text>
<polygon fill="none" stroke="black" points="1830.71,-422.8 1830.71,-453.6 2062.33,-453.6 2062.33,-422.8 1830.71,-422.8"/>
<text text-anchor="start" x="1837.71" y="-435" font-family="Arial" font-size="14.00">status </text>
<text text-anchor="start" x="1878.95" y="-435" font-family="Arial" font-size="14.00" fill="#666666">[tinyint]</text>
</g>
<!-- finance.bills&#45;&gt;users -->
<g id="edge6" class="edge">
<title>finance.bills:user_id&#45;&gt;users:id</title>
<path fill="none" stroke="black" d="M1819.59,-868.07C1728.8,-842.61 1849.73,-457.85 1778.52,-379.6 1677.33,-268.41 1265.57,-246.4 1115.24,-246.4"/>
<polygon fill="black" stroke="black" points="1819.46,-868.06 1828.79,-873.82 1824.75,-868.75 1829.04,-869.31 1829.04,-869.31 1829.04,-869.31 1824.75,-868.75 1829.96,-864.89 1819.46,-868.06"/>
</g>
</g>
</svg>
